<svg width="400" height="400" viewBox="0 0 400 400" fill="none" xmlns="http://www.w3.org/2000/svg">
  <defs>
    <radialGradient id="bg" cx="0" cy="0" r="1" gradientUnits="userSpaceOnUse" gradientTransform="translate(142 116) rotate(56) scale(322)">
      <stop stop-color="#14351e"/>
      <stop offset="0.36" stop-color="#06130b"/>
      <stop offset="1" stop-color="#010603"/>
    </radialGradient>
    <radialGradient id="glow" cx="0" cy="0" r="1" gradientUnits="userSpaceOnUse" gradientTransform="translate(205 170) rotate(90) scale(178)">
      <stop stop-color="#c7ff75" stop-opacity="0.95"/>
      <stop offset="0.25" stop-color="#6eff8c" stop-opacity="0.46"/>
      <stop offset="1" stop-color="#00e25a" stop-opacity="0"/>
    </radialGradient>
    <linearGradient id="ring" x1="84" y1="72" x2="318" y2="312" gradientUnits="userSpaceOnUse">
      <stop stop-color="#e7ff9a"/>
      <stop offset="0.42" stop-color="#8dff5d"/>
      <stop offset="1" stop-color="#20e58a"/>
    </linearGradient>
    <linearGradient id="word" x1="86" y1="314" x2="317" y2="314" gradientUnits="userSpaceOnUse">
      <stop stop-color="#eaffd0"/>
      <stop offset="0.5" stop-color="#ffffff"/>
      <stop offset="1" stop-color="#a7f3d0"/>
    </linearGradient>
    <filter id="softGlow" x="-80" y="-80" width="560" height="560" color-interpolation-filters="sRGB">
      <feGaussianBlur stdDeviation="12" result="blur"/>
      <feColorMatrix in="blur" type="matrix" values="0 0 0 0 0.45 0 0 0 0 1 0 0 0 0 0.22 0 0 0 0.82 0"/>
      <feBlend in="SourceGraphic"/>
    </filter>
    <filter id="textGlow" x="0" y="0" width="400" height="400" color-interpolation-filters="sRGB">
      <feDropShadow dx="0" dy="0" stdDeviation="5" flood-color="#8dff5d" flood-opacity="0.55"/>
    </filter>
  </defs>

  <rect width="400" height="400" rx="58" fill="url(#bg)"/>
  <rect x="1.5" y="1.5" width="397" height="397" rx="56.5" stroke="#b8ff73" stroke-opacity="0.22" stroke-width="3"/>
  <circle cx="200" cy="174" r="151" fill="url(#glow)" opacity="0.4"/>
  <path d="M44 288C98 332 302 332 356 288" stroke="#9cff6e" stroke-opacity="0.18" stroke-width="2"/>
  <path d="M50 92C106 52 280 50 348 112" stroke="#9cff6e" stroke-opacity="0.16" stroke-width="2"/>

  <g filter="url(#softGlow)">
    <circle cx="200" cy="166" r="112" stroke="url(#ring)" stroke-width="15"/>
    <path d="M110 111L200 236L290 111" stroke="url(#ring)" stroke-width="20" stroke-linecap="round" stroke-linejoin="round"/>
    <path d="M218 105H272C296 105 313 122 313 145C313 168 296 184 272 184H224V230" stroke="url(#ring)" stroke-width="20" stroke-linecap="round" stroke-linejoin="round"/>
    <path d="M198 241V91" stroke="#031008" stroke-width="13" stroke-linecap="round"/>
    <path d="M218 175H294" stroke="#031008" stroke-width="13" stroke-linecap="round"/>
  </g>

  <g filter="url(#textGlow)">
    <text x="200" y="323" text-anchor="middle" fill="url(#word)" font-family="Arial, Helvetica, sans-serif" font-size="39" font-weight="900" letter-spacing="1.6">VP STUDIO</text>
    <text x="200" y="350" text-anchor="middle" fill="#95f7b2" font-family="Arial, Helvetica, sans-serif" font-size="13" font-weight="800" letter-spacing="5.4">WEB DESIGN STUDIO</text>
  </g>
</svg>