<svg xmlns="http://www.w3.org/2000/svg" width="1400" height="760" viewBox="0 0 1400 760" role="img" aria-label="Ozvite sa">
  <defs>
    <linearGradient id="bg-vpcta" x1="0" y1="0" x2="1" y2="1"><stop offset="0" stop-color="#020617"/><stop offset="0.48" stop-color="#071426"/><stop offset="1" stop-color="#020712"/></linearGradient>
    <radialGradient id="glow-vpcta" cx="68%" cy="32%" r="70%"><stop offset="0" stop-color="#38bdf8" stop-opacity="0.55"/><stop offset="0.32" stop-color="#38bdf8" stop-opacity="0.22"/><stop offset="1" stop-color="#38bdf8" stop-opacity="0"/></radialGradient>
    <linearGradient id="line-vpcta" x1="0" y1="0" x2="1" y2="0"><stop offset="0" stop-color="#38bdf8" stop-opacity="0"/><stop offset="0.5" stop-color="#38bdf8" stop-opacity="0.9"/><stop offset="1" stop-color="#ffffff" stop-opacity="0"/></linearGradient>
    <filter id="soft-vpcta" x="-40%" y="-40%" width="180%" height="180%"><feGaussianBlur stdDeviation="26" result="blur"/><feColorMatrix in="blur" type="matrix" values="0 0 0 0 0.1  0 0 0 0 0.45  0 0 0 0 1  0 0 0 0.95 0"/></filter>
    <style>.kicker{font:800 24px Inter,Manrope,Arial,sans-serif;letter-spacing:.18em;text-transform:uppercase;fill:#38bdf8}.title{font:700 84px Inter,Manrope,Arial,sans-serif;letter-spacing:-.045em;fill:#f8fafc}.desc{font:700 27px Inter,Manrope,Arial,sans-serif;fill:#b9c6d8}.vp{font:900 26px Inter,Manrope,Arial,sans-serif;letter-spacing:.12em;fill:#f8fafc}.micro{font:800 16px Inter,Manrope,Arial,sans-serif;letter-spacing:.24em;fill:#7dd3fc}</style>
  </defs>
  <rect width="1400" height="760" rx="42" fill="url(#bg-vpcta)"/>
  <rect width="1400" height="760" rx="42" fill="url(#glow-vpcta)"/>
  <g opacity="0.18"><path d="M0 0V760" stroke="#7dd3fc" stroke-opacity="0.25"/><path d="M80 0V760" stroke="#7dd3fc" stroke-opacity="0.25"/><path d="M160 0V760" stroke="#7dd3fc" stroke-opacity="0.25"/><path d="M240 0V760" stroke="#7dd3fc" stroke-opacity="0.25"/><path d="M320 0V760" stroke="#7dd3fc" stroke-opacity="0.25"/><path d="M400 0V760" stroke="#7dd3fc" stroke-opacity="0.25"/><path d="M480 0V760" stroke="#7dd3fc" stroke-opacity="0.25"/><path d="M560 0V760" stroke="#7dd3fc" stroke-opacity="0.25"/><path d="M640 0V760" stroke="#7dd3fc" stroke-opacity="0.25"/><path d="M720 0V760" stroke="#7dd3fc" stroke-opacity="0.25"/><path d="M800 0V760" stroke="#7dd3fc" stroke-opacity="0.25"/><path d="M880 0V760" stroke="#7dd3fc" stroke-opacity="0.25"/><path d="M960 0V760" stroke="#7dd3fc" stroke-opacity="0.25"/><path d="M1040 0V760" stroke="#7dd3fc" stroke-opacity="0.25"/><path d="M1120 0V760" stroke="#7dd3fc" stroke-opacity="0.25"/><path d="M1200 0V760" stroke="#7dd3fc" stroke-opacity="0.25"/><path d="M1280 0V760" stroke="#7dd3fc" stroke-opacity="0.25"/><path d="M1360 0V760" stroke="#7dd3fc" stroke-opacity="0.25"/><path d="M1440 0V760" stroke="#7dd3fc" stroke-opacity="0.25"/><path d="M0 0H1400" stroke="#7dd3fc" stroke-opacity="0.22"/><path d="M0 80H1400" stroke="#7dd3fc" stroke-opacity="0.22"/><path d="M0 160H1400" stroke="#7dd3fc" stroke-opacity="0.22"/><path d="M0 240H1400" stroke="#7dd3fc" stroke-opacity="0.22"/><path d="M0 320H1400" stroke="#7dd3fc" stroke-opacity="0.22"/><path d="M0 400H1400" stroke="#7dd3fc" stroke-opacity="0.22"/><path d="M0 480H1400" stroke="#7dd3fc" stroke-opacity="0.22"/><path d="M0 560H1400" stroke="#7dd3fc" stroke-opacity="0.22"/><path d="M0 640H1400" stroke="#7dd3fc" stroke-opacity="0.22"/><path d="M0 720H1400" stroke="#7dd3fc" stroke-opacity="0.22"/><path d="M0 800H1400" stroke="#7dd3fc" stroke-opacity="0.22"/></g>
  <circle cx="1008" cy="258.40000000000003" r="258.40000000000003" fill="#38bdf8" opacity="0.18" filter="url(#soft-vpcta)"/>
  <circle cx="1148" cy="114" r="121.60000000000001" fill="#ffffff" opacity="0.08" filter="url(#soft-vpcta)"/>
  <g transform="translate(588 273.59999999999997) rotate(-11)" opacity="0.72">
    <rect x="0" y="0" width="700" height="212.8" rx="18" fill="#071426" stroke="#38bdf8" stroke-opacity="0.18"/>
    <rect x="22" y="24" width="588" height="144.4" rx="10" fill="#020617" stroke="#7dd3fc" stroke-opacity="0.12"/>
    <path d="M44 52h35" stroke="#38bdf8" stroke-opacity="0.2" stroke-width="3"/><path d="M68 52h55" stroke="#38bdf8" stroke-opacity="0.26" stroke-width="3"/><path d="M92 52h75" stroke="#38bdf8" stroke-opacity="0.32" stroke-width="3"/><path d="M116 52h35" stroke="#38bdf8" stroke-opacity="0.2" stroke-width="3"/><path d="M140 52h55" stroke="#38bdf8" stroke-opacity="0.26" stroke-width="3"/><path d="M164 52h75" stroke="#38bdf8" stroke-opacity="0.32" stroke-width="3"/><path d="M188 52h35" stroke="#38bdf8" stroke-opacity="0.2" stroke-width="3"/><path d="M212 52h55" stroke="#38bdf8" stroke-opacity="0.26" stroke-width="3"/><path d="M236 52h75" stroke="#38bdf8" stroke-opacity="0.32" stroke-width="3"/><path d="M260 52h35" stroke="#38bdf8" stroke-opacity="0.2" stroke-width="3"/><path d="M284 52h55" stroke="#38bdf8" stroke-opacity="0.26" stroke-width="3"/><path d="M308 52h75" stroke="#38bdf8" stroke-opacity="0.32" stroke-width="3"/>
    <path d="M-26 235.6H756" stroke="#bfdbfe" stroke-opacity="0.2" stroke-width="18" stroke-linecap="round"/>
  </g><g transform="translate(756 250.8) rotate(-7)" opacity="0.62">
    <rect width="504" height="205.20000000000002" rx="22" fill="#071426" stroke="#38bdf8" stroke-opacity="0.2"/>
    <path d="M48 170V92M104 170V54M160 170v-42M216 170V74" stroke="#38bdf8" stroke-opacity="0.65" stroke-width="14" stroke-linecap="round"/>
    <path d="M42 190h230" stroke="#bfdbfe" stroke-opacity="0.16" stroke-width="4"/>
  </g>
  <path d="M140 547.1999999999999C448 440.79999999999995 700 668.8 1260 471.2" stroke="#38bdf8" stroke-opacity="0.28" stroke-width="2" fill="none"/>
  <path d="M224 129.20000000000002H770.0000000000001" stroke="url(#line-vpcta)" stroke-width="2"/>
  <rect x="92" y="102" width="232" height="48" rx="24" fill="#071426" stroke="#38bdf8" stroke-opacity="0.3"/>
  <text x="120" y="134" class="kicker">VP Studio</text>
  <g transform="translate(1175 110) scale(0.9833333333333333)" fill="none" stroke="#38bdf8" stroke-width="5" stroke-linecap="round" stroke-linejoin="round"><path d="M28 36l-20 24 20 24"/><path d="M92 36l20 24-20 24"/><path d="M72 20L48 100"/></g>
  <text x="92" y="250" class="title">Ozvite sa</text>
  <foreignObject x="92" y="372.64" width="780" height="110"><div xmlns="http://www.w3.org/1999/xhtml" style="font:700 27px Inter,Manrope,Arial,sans-serif;line-height:1.38;color:#b9c6d8;">Weby, Shoptet upravy, SEO, Merchant, bannery a grafika pre znacky, ktore chcu posobit profesionalne.</div></foreignObject>
  <g transform="translate(92 674)"><rect width="74" height="44" rx="14" fill="#071426" stroke="#38bdf8" stroke-opacity="0.38"/><text x="18" y="29" class="vp">VP</text><text x="92" y="29" class="micro">STUDIO</text></g>
  <rect x="1" y="1" width="1398" height="758" rx="42" fill="none" stroke="#bfdbfe" stroke-opacity="0.16"/>
</svg>